<?xml version="1.0" encoding="us-ascii" standalone="no"?><svg xmlns="http://www.w3.org/2000/svg" xmlns:xlink="http://www.w3.org/1999/xlink" contentStyleType="text/css" height="609px" preserveAspectRatio="none" style="width:774px;height:609px;background:#FFFFFF;" version="1.1" viewBox="0 0 774 609" width="774px" zoomAndPan="magnify"><defs/><g><!--class Role--><g id="elem_Role"><rect codeLine="9" fill="#F1F1F1" height="50.5938" id="Role" rx="2.5" ry="2.5" style="stroke:#181818;stroke-width:0.5;" width="63" x="238" y="134.5"/><ellipse cx="252" cy="147.6484" fill="#C2C2C2" rx="0" ry="0" style="stroke:#181818;stroke-width:1.0;"/><path d="M272.5,168.1484 C272.5,168.1484 272.5,168.1484 272.5,168.1484 C272.5,168.1484 272.5,168.1484 272.5,168.1484 L272.5,168.1484 C272.5,168.1484 272.5,168.1484 272.5,168.1484 C272.5,168.1484 272.5,168.1484 272.5,168.1484 C272.5,168.1484 272.5,168.1484 272.5,168.1484 C272.5,168.1484 272.5,168.1484 272.5,168.1484 C272.5,168.1484 272.5,168.1484 272.5,168.1484 C272.5,168.1484 272.5,168.1484 272.5,168.1484 C272.5,168.1484 272.5,168.1484 272.5,168.1484 C272.5,168.1484 272.5,168.1484 272.5,168.1484 L272.5,168.1484 C272.5,168.1484 272.5,168.1484 272.5,168.1484 C272.5,168.1484 272.5,168.1484 272.5,168.1484 C272.5,168.1484 272.5,168.1484 272.5,168.1484 C272.5,168.1484 272.5,168.1484 272.5,168.1484 C272.5,168.1484 272.5,168.1484 272.5,168.1484 C272.5,168.1484 272.5,168.1484 272.5,168.1484 C272.5,168.1484 272.5,168.1484 272.5,168.1484 L272.5,168.1484 C272.5,168.1484 272.5,168.1484 272.5,168.1484 C272.5,168.1484 272.5,168.1484 272.5,168.1484 C272.5,168.1484 272.5,168.1484 272.5,168.1484 L272.5,168.1484 Z " fill="#000000"/><text fill="#000000" font-family="sans-serif" font-size="14" lengthAdjust="spacing" textLength="32" x="256" y="152.4951">Role</text><line style="stroke:#181818;stroke-width:0.5;" x1="239" x2="300" y1="160.7969" y2="160.7969"/><text fill="#000000" font-family="sans-serif" font-size="14" lengthAdjust="spacing" textLength="51" x="244" y="177.792">+name</text></g><!--class Data Store--><g id="elem_Data Store"><rect codeLine="13" fill="#F1F1F1" height="132.0781" id="Data Store" rx="2.5" ry="2.5" style="stroke:#181818;stroke-width:0.5;" width="152" x="336.5" y="94"/><ellipse cx="372" cy="107.1484" fill="#C2C2C2" rx="0" ry="0" style="stroke:#181818;stroke-width:1.0;"/><path d="M392.5,127.6484 C392.5,127.6484 392.5,127.6484 392.5,127.6484 C392.5,127.6484 392.5,127.6484 392.5,127.6484 L392.5,127.6484 C392.5,127.6484 392.5,127.6484 392.5,127.6484 C392.5,127.6484 392.5,127.6484 392.5,127.6484 C392.5,127.6484 392.5,127.6484 392.5,127.6484 C392.5,127.6484 392.5,127.6484 392.5,127.6484 C392.5,127.6484 392.5,127.6484 392.5,127.6484 C392.5,127.6484 392.5,127.6484 392.5,127.6484 C392.5,127.6484 392.5,127.6484 392.5,127.6484 C392.5,127.6484 392.5,127.6484 392.5,127.6484 L392.5,127.6484 C392.5,127.6484 392.5,127.6484 392.5,127.6484 C392.5,127.6484 392.5,127.6484 392.5,127.6484 C392.5,127.6484 392.5,127.6484 392.5,127.6484 C392.5,127.6484 392.5,127.6484 392.5,127.6484 C392.5,127.6484 392.5,127.6484 392.5,127.6484 C392.5,127.6484 392.5,127.6484 392.5,127.6484 C392.5,127.6484 392.5,127.6484 392.5,127.6484 L392.5,127.6484 C392.5,127.6484 392.5,127.6484 392.5,127.6484 C392.5,127.6484 392.5,127.6484 392.5,127.6484 C392.5,127.6484 392.5,127.6484 392.5,127.6484 L392.5,127.6484 Z " fill="#000000"/><text fill="#000000" font-family="sans-serif" font-size="14" lengthAdjust="spacing" textLength="78" x="376" y="111.9951">Data Store</text><line style="stroke:#181818;stroke-width:0.5;" x1="337.5" x2="487.5" y1="120.2969" y2="120.2969"/><text fill="#000000" font-family="sans-serif" font-size="14" lengthAdjust="spacing" textLength="51" x="342.5" y="137.292">+name</text><text fill="#000000" font-family="sans-serif" font-size="14" lengthAdjust="spacing" textLength="45" x="342.5" y="153.5889">+type</text><text fill="#000000" font-family="sans-serif" font-size="14" lengthAdjust="spacing" textLength="95" x="342.5" y="169.8857">+parameters</text><text fill="#000000" font-family="sans-serif" font-size="14" lengthAdjust="spacing" textLength="88" x="342.5" y="186.1826">+properties</text><text fill="#000000" font-family="sans-serif" font-size="14" lengthAdjust="spacing" textLength="70" x="342.5" y="202.4795">+prefixes</text><text fill="#000000" font-family="sans-serif" font-size="14" lengthAdjust="spacing" textLength="140" x="342.5" y="218.7764">+commitProcedure</text></g><!--class Axioms--><g id="elem_Axioms"><rect codeLine="22" fill="#F1F1F1" height="50.5938" id="Axioms" rx="2.5" ry="2.5" style="stroke:#181818;stroke-width:0.5;" width="130" x="347.5" y="287"/><ellipse cx="385" cy="300.1484" fill="#C2C2C2" rx="0" ry="0" style="stroke:#181818;stroke-width:1.0;"/><path d="M405.5,320.6484 C405.5,320.6484 405.5,320.6484 405.5,320.6484 C405.5,320.6484 405.5,320.6484 405.5,320.6484 L405.5,320.6484 C405.5,320.6484 405.5,320.6484 405.5,320.6484 C405.5,320.6484 405.5,320.6484 405.5,320.6484 C405.5,320.6484 405.5,320.6484 405.5,320.6484 C405.5,320.6484 405.5,320.6484 405.5,320.6484 C405.5,320.6484 405.5,320.6484 405.5,320.6484 C405.5,320.6484 405.5,320.6484 405.5,320.6484 C405.5,320.6484 405.5,320.6484 405.5,320.6484 C405.5,320.6484 405.5,320.6484 405.5,320.6484 L405.5,320.6484 C405.5,320.6484 405.5,320.6484 405.5,320.6484 C405.5,320.6484 405.5,320.6484 405.5,320.6484 C405.5,320.6484 405.5,320.6484 405.5,320.6484 C405.5,320.6484 405.5,320.6484 405.5,320.6484 C405.5,320.6484 405.5,320.6484 405.5,320.6484 C405.5,320.6484 405.5,320.6484 405.5,320.6484 C405.5,320.6484 405.5,320.6484 405.5,320.6484 L405.5,320.6484 C405.5,320.6484 405.5,320.6484 405.5,320.6484 C405.5,320.6484 405.5,320.6484 405.5,320.6484 C405.5,320.6484 405.5,320.6484 405.5,320.6484 L405.5,320.6484 Z " fill="#000000"/><text fill="#000000" font-family="sans-serif" font-size="14" lengthAdjust="spacing" textLength="52" x="389" y="304.9951">Axioms</text><line style="stroke:#181818;stroke-width:0.5;" x1="348.5" x2="476.5" y1="313.2969" y2="313.2969"/><text fill="#000000" font-family="sans-serif" font-size="14" lengthAdjust="spacing" textLength="118" x="353.5" y="330.292">+axiom domains</text></g><!--class Rules--><g id="elem_Rules"><rect codeLine="26" fill="#F1F1F1" height="50.5938" id="Rules" rx="2.5" ry="2.5" style="stroke:#181818;stroke-width:0.5;" width="114" x="512.5" y="287"/><ellipse cx="549" cy="300.1484" fill="#C2C2C2" rx="0" ry="0" style="stroke:#181818;stroke-width:1.0;"/><path d="M569.5,320.6484 C569.5,320.6484 569.5,320.6484 569.5,320.6484 C569.5,320.6484 569.5,320.6484 569.5,320.6484 L569.5,320.6484 C569.5,320.6484 569.5,320.6484 569.5,320.6484 C569.5,320.6484 569.5,320.6484 569.5,320.6484 C569.5,320.6484 569.5,320.6484 569.5,320.6484 C569.5,320.6484 569.5,320.6484 569.5,320.6484 C569.5,320.6484 569.5,320.6484 569.5,320.6484 C569.5,320.6484 569.5,320.6484 569.5,320.6484 C569.5,320.6484 569.5,320.6484 569.5,320.6484 C569.5,320.6484 569.5,320.6484 569.5,320.6484 L569.5,320.6484 C569.5,320.6484 569.5,320.6484 569.5,320.6484 C569.5,320.6484 569.5,320.6484 569.5,320.6484 C569.5,320.6484 569.5,320.6484 569.5,320.6484 C569.5,320.6484 569.5,320.6484 569.5,320.6484 C569.5,320.6484 569.5,320.6484 569.5,320.6484 C569.5,320.6484 569.5,320.6484 569.5,320.6484 C569.5,320.6484 569.5,320.6484 569.5,320.6484 L569.5,320.6484 C569.5,320.6484 569.5,320.6484 569.5,320.6484 C569.5,320.6484 569.5,320.6484 569.5,320.6484 C569.5,320.6484 569.5,320.6484 569.5,320.6484 L569.5,320.6484 Z " fill="#000000"/><text fill="#000000" font-family="sans-serif" font-size="14" lengthAdjust="spacing" textLength="38" x="553" y="304.9951">Rules</text><line style="stroke:#181818;stroke-width:0.5;" x1="513.5" x2="625.5" y1="313.2969" y2="313.2969"/><text fill="#000000" font-family="sans-serif" font-size="14" lengthAdjust="spacing" textLength="102" x="518.5" y="330.292">+rule domains</text></g><!--class Tuple Table--><g id="elem_Tuple Table"><rect codeLine="30" fill="#F1F1F1" height="99.4844" id="Tuple Table" rx="2.5" ry="2.5" style="stroke:#181818;stroke-width:0.5;" width="126" x="295.5" y="415"/><ellipse cx="315" cy="428.1484" fill="#C2C2C2" rx="0" ry="0" style="stroke:#181818;stroke-width:1.0;"/><path d="M335.5,448.6484 C335.5,448.6484 335.5,448.6484 335.5,448.6484 C335.5,448.6484 335.5,448.6484 335.5,448.6484 L335.5,448.6484 C335.5,448.6484 335.5,448.6484 335.5,448.6484 C335.5,448.6484 335.5,448.6484 335.5,448.6484 C335.5,448.6484 335.5,448.6484 335.5,448.6484 C335.5,448.6484 335.5,448.6484 335.5,448.6484 C335.5,448.6484 335.5,448.6484 335.5,448.6484 C335.5,448.6484 335.5,448.6484 335.5,448.6484 C335.5,448.6484 335.5,448.6484 335.5,448.6484 C335.5,448.6484 335.5,448.6484 335.5,448.6484 L335.5,448.6484 C335.5,448.6484 335.5,448.6484 335.5,448.6484 C335.5,448.6484 335.5,448.6484 335.5,448.6484 C335.5,448.6484 335.5,448.6484 335.5,448.6484 C335.5,448.6484 335.5,448.6484 335.5,448.6484 C335.5,448.6484 335.5,448.6484 335.5,448.6484 C335.5,448.6484 335.5,448.6484 335.5,448.6484 C335.5,448.6484 335.5,448.6484 335.5,448.6484 L335.5,448.6484 C335.5,448.6484 335.5,448.6484 335.5,448.6484 C335.5,448.6484 335.5,448.6484 335.5,448.6484 C335.5,448.6484 335.5,448.6484 335.5,448.6484 L335.5,448.6484 Z " fill="#000000"/><text fill="#000000" font-family="sans-serif" font-size="14" lengthAdjust="spacing" textLength="84" x="319" y="432.9951">Tuple Table</text><line style="stroke:#181818;stroke-width:0.5;" x1="296.5" x2="420.5" y1="441.2969" y2="441.2969"/><text fill="#000000" font-family="sans-serif" font-size="14" lengthAdjust="spacing" textLength="51" x="301.5" y="458.292">+name</text><text fill="#000000" font-family="sans-serif" font-size="14" lengthAdjust="spacing" textLength="44" x="301.5" y="474.5889">+arity</text><text fill="#000000" font-family="sans-serif" font-size="14" lengthAdjust="spacing" textLength="95" x="301.5" y="490.8857">+parameters</text><text fill="#000000" font-family="sans-serif" font-size="14" lengthAdjust="spacing" textLength="114" x="301.5" y="507.1826">+column names</text></g><!--class Server--><g id="elem_Server"><rect fill="#F1F1F1" height="26.2969" id="Server" rx="2.5" ry="2.5" style="stroke:#181818;stroke-width:0.5;" width="57" x="287" y="7"/><ellipse cx="291" cy="20.1484" fill="#C2C2C2" rx="0" ry="0" style="stroke:#181818;stroke-width:1.0;"/><path d="M311.5,40.6484 C311.5,40.6484 311.5,40.6484 311.5,40.6484 C311.5,40.6484 311.5,40.6484 311.5,40.6484 L311.5,40.6484 C311.5,40.6484 311.5,40.6484 311.5,40.6484 C311.5,40.6484 311.5,40.6484 311.5,40.6484 C311.5,40.6484 311.5,40.6484 311.5,40.6484 C311.5,40.6484 311.5,40.6484 311.5,40.6484 C311.5,40.6484 311.5,40.6484 311.5,40.6484 C311.5,40.6484 311.5,40.6484 311.5,40.6484 C311.5,40.6484 311.5,40.6484 311.5,40.6484 C311.5,40.6484 311.5,40.6484 311.5,40.6484 L311.5,40.6484 C311.5,40.6484 311.5,40.6484 311.5,40.6484 C311.5,40.6484 311.5,40.6484 311.5,40.6484 C311.5,40.6484 311.5,40.6484 311.5,40.6484 C311.5,40.6484 311.5,40.6484 311.5,40.6484 C311.5,40.6484 311.5,40.6484 311.5,40.6484 C311.5,40.6484 311.5,40.6484 311.5,40.6484 C311.5,40.6484 311.5,40.6484 311.5,40.6484 L311.5,40.6484 C311.5,40.6484 311.5,40.6484 311.5,40.6484 C311.5,40.6484 311.5,40.6484 311.5,40.6484 C311.5,40.6484 311.5,40.6484 311.5,40.6484 L311.5,40.6484 Z " fill="#000000"/><text fill="#000000" font-family="sans-serif" font-size="14" lengthAdjust="spacing" textLength="47" x="294" y="24.9951">Server</text></g><!--class Data Source--><g id="elem_Data Source"><rect fill="#F1F1F1" height="26.2969" id="Data Source" rx="2.5" ry="2.5" style="stroke:#181818;stroke-width:0.5;" width="97" x="144" y="299.5"/><ellipse cx="148" cy="312.6484" fill="#C2C2C2" rx="0" ry="0" style="stroke:#181818;stroke-width:1.0;"/><path d="M168.5,333.1484 C168.5,333.1484 168.5,333.1484 168.5,333.1484 C168.5,333.1484 168.5,333.1484 168.5,333.1484 L168.5,333.1484 C168.5,333.1484 168.5,333.1484 168.5,333.1484 C168.5,333.1484 168.5,333.1484 168.5,333.1484 C168.5,333.1484 168.5,333.1484 168.5,333.1484 C168.5,333.1484 168.5,333.1484 168.5,333.1484 C168.5,333.1484 168.5,333.1484 168.5,333.1484 C168.5,333.1484 168.5,333.1484 168.5,333.1484 C168.5,333.1484 168.5,333.1484 168.5,333.1484 C168.5,333.1484 168.5,333.1484 168.5,333.1484 L168.5,333.1484 C168.5,333.1484 168.5,333.1484 168.5,333.1484 C168.5,333.1484 168.5,333.1484 168.5,333.1484 C168.5,333.1484 168.5,333.1484 168.5,333.1484 C168.5,333.1484 168.5,333.1484 168.5,333.1484 C168.5,333.1484 168.5,333.1484 168.5,333.1484 C168.5,333.1484 168.5,333.1484 168.5,333.1484 C168.5,333.1484 168.5,333.1484 168.5,333.1484 L168.5,333.1484 C168.5,333.1484 168.5,333.1484 168.5,333.1484 C168.5,333.1484 168.5,333.1484 168.5,333.1484 C168.5,333.1484 168.5,333.1484 168.5,333.1484 L168.5,333.1484 Z " fill="#000000"/><text fill="#000000" font-family="sans-serif" font-size="14" lengthAdjust="spacing" textLength="87" x="151" y="317.4951">Data Source</text></g><!--class Statistics--><g id="elem_Statistics"><rect fill="#F1F1F1" height="26.2969" id="Statistics" rx="2.5" ry="2.5" style="stroke:#181818;stroke-width:0.5;" width="78" x="661.5" y="299.5"/><ellipse cx="665.5" cy="312.6484" fill="#C2C2C2" rx="0" ry="0" style="stroke:#181818;stroke-width:1.0;"/><path d="M686,333.1484 C686,333.1484 686,333.1484 686,333.1484 C686,333.1484 686,333.1484 686,333.1484 L686,333.1484 C686,333.1484 686,333.1484 686,333.1484 C686,333.1484 686,333.1484 686,333.1484 C686,333.1484 686,333.1484 686,333.1484 C686,333.1484 686,333.1484 686,333.1484 C686,333.1484 686,333.1484 686,333.1484 C686,333.1484 686,333.1484 686,333.1484 C686,333.1484 686,333.1484 686,333.1484 C686,333.1484 686,333.1484 686,333.1484 L686,333.1484 C686,333.1484 686,333.1484 686,333.1484 C686,333.1484 686,333.1484 686,333.1484 C686,333.1484 686,333.1484 686,333.1484 C686,333.1484 686,333.1484 686,333.1484 C686,333.1484 686,333.1484 686,333.1484 C686,333.1484 686,333.1484 686,333.1484 C686,333.1484 686,333.1484 686,333.1484 L686,333.1484 C686,333.1484 686,333.1484 686,333.1484 C686,333.1484 686,333.1484 686,333.1484 C686,333.1484 686,333.1484 686,333.1484 L686,333.1484 Z " fill="#000000"/><text fill="#000000" font-family="sans-serif" font-size="14" lengthAdjust="spacing" textLength="68" x="668.5" y="317.4951">Statistics</text></g><!--class Fact--><g id="elem_Fact"><rect fill="#F1F1F1" height="26.2969" id="Fact" rx="2.5" ry="2.5" style="stroke:#181818;stroke-width:0.5;" width="41" x="329" y="575"/><ellipse cx="333" cy="588.1484" fill="#C2C2C2" rx="0" ry="0" style="stroke:#181818;stroke-width:1.0;"/><path d="M353.5,608.6484 C353.5,608.6484 353.5,608.6484 353.5,608.6484 C353.5,608.6484 353.5,608.6484 353.5,608.6484 L353.5,608.6484 C353.5,608.6484 353.5,608.6484 353.5,608.6484 C353.5,608.6484 353.5,608.6484 353.5,608.6484 C353.5,608.6484 353.5,608.6484 353.5,608.6484 C353.5,608.6484 353.5,608.6484 353.5,608.6484 C353.5,608.6484 353.5,608.6484 353.5,608.6484 C353.5,608.6484 353.5,608.6484 353.5,608.6484 C353.5,608.6484 353.5,608.6484 353.5,608.6484 C353.5,608.6484 353.5,608.6484 353.5,608.6484 L353.5,608.6484 C353.5,608.6484 353.5,608.6484 353.5,608.6484 C353.5,608.6484 353.5,608.6484 353.5,608.6484 C353.5,608.6484 353.5,608.6484 353.5,608.6484 C353.5,608.6484 353.5,608.6484 353.5,608.6484 C353.5,608.6484 353.5,608.6484 353.5,608.6484 C353.5,608.6484 353.5,608.6484 353.5,608.6484 C353.5,608.6484 353.5,608.6484 353.5,608.6484 L353.5,608.6484 C353.5,608.6484 353.5,608.6484 353.5,608.6484 C353.5,608.6484 353.5,608.6484 353.5,608.6484 C353.5,608.6484 353.5,608.6484 353.5,608.6484 L353.5,608.6484 Z " fill="#000000"/><text fill="#000000" font-family="sans-serif" font-size="14" lengthAdjust="spacing" textLength="31" x="336" y="592.9951">Fact</text></g><!--class In-memory Tuple Table--><g id="elem_In-memory Tuple Table"><rect fill="#F1F1F1" height="26.2969" id="In-memory Tuple Table" rx="2.5" ry="2.5" style="stroke:#181818;stroke-width:0.5;" width="177" x="405" y="575"/><ellipse cx="409" cy="588.1484" fill="#C2C2C2" rx="0" ry="0" style="stroke:#181818;stroke-width:1.0;"/><path d="M429.5,608.6484 C429.5,608.6484 429.5,608.6484 429.5,608.6484 C429.5,608.6484 429.5,608.6484 429.5,608.6484 L429.5,608.6484 C429.5,608.6484 429.5,608.6484 429.5,608.6484 C429.5,608.6484 429.5,608.6484 429.5,608.6484 C429.5,608.6484 429.5,608.6484 429.5,608.6484 C429.5,608.6484 429.5,608.6484 429.5,608.6484 C429.5,608.6484 429.5,608.6484 429.5,608.6484 C429.5,608.6484 429.5,608.6484 429.5,608.6484 C429.5,608.6484 429.5,608.6484 429.5,608.6484 C429.5,608.6484 429.5,608.6484 429.5,608.6484 L429.5,608.6484 C429.5,608.6484 429.5,608.6484 429.5,608.6484 C429.5,608.6484 429.5,608.6484 429.5,608.6484 C429.5,608.6484 429.5,608.6484 429.5,608.6484 C429.5,608.6484 429.5,608.6484 429.5,608.6484 C429.5,608.6484 429.5,608.6484 429.5,608.6484 C429.5,608.6484 429.5,608.6484 429.5,608.6484 C429.5,608.6484 429.5,608.6484 429.5,608.6484 L429.5,608.6484 C429.5,608.6484 429.5,608.6484 429.5,608.6484 C429.5,608.6484 429.5,608.6484 429.5,608.6484 C429.5,608.6484 429.5,608.6484 429.5,608.6484 L429.5,608.6484 Z " fill="#000000"/><text fill="#000000" font-family="sans-serif" font-size="14" lengthAdjust="spacing" textLength="167" x="412" y="592.9951">In-memory Tuple Table</text></g><!--class Built-in Tuple Table--><g id="elem_Built-in Tuple Table"><rect fill="#F1F1F1" height="26.2969" id="Built-in Tuple Table" rx="2.5" ry="2.5" style="stroke:#181818;stroke-width:0.5;" width="150" x="617.5" y="575"/><ellipse cx="621.5" cy="588.1484" fill="#C2C2C2" rx="0" ry="0" style="stroke:#181818;stroke-width:1.0;"/><path d="M642,608.6484 C642,608.6484 642,608.6484 642,608.6484 C642,608.6484 642,608.6484 642,608.6484 L642,608.6484 C642,608.6484 642,608.6484 642,608.6484 C642,608.6484 642,608.6484 642,608.6484 C642,608.6484 642,608.6484 642,608.6484 C642,608.6484 642,608.6484 642,608.6484 C642,608.6484 642,608.6484 642,608.6484 C642,608.6484 642,608.6484 642,608.6484 C642,608.6484 642,608.6484 642,608.6484 C642,608.6484 642,608.6484 642,608.6484 L642,608.6484 C642,608.6484 642,608.6484 642,608.6484 C642,608.6484 642,608.6484 642,608.6484 C642,608.6484 642,608.6484 642,608.6484 C642,608.6484 642,608.6484 642,608.6484 C642,608.6484 642,608.6484 642,608.6484 C642,608.6484 642,608.6484 642,608.6484 C642,608.6484 642,608.6484 642,608.6484 L642,608.6484 C642,608.6484 642,608.6484 642,608.6484 C642,608.6484 642,608.6484 642,608.6484 C642,608.6484 642,608.6484 642,608.6484 L642,608.6484 Z " fill="#000000"/><text fill="#000000" font-family="sans-serif" font-size="14" lengthAdjust="spacing" textLength="140" x="624.5" y="592.9951">Built-in Tuple Table</text></g><!--class Data Source Table--><g id="elem_Data Source Table"><rect fill="#F1F1F1" height="26.2969" id="Data Source Table" rx="2.5" ry="2.5" style="stroke:#181818;stroke-width:0.5;" width="141" x="7" y="451.5"/><ellipse cx="11" cy="464.6484" fill="#C2C2C2" rx="0" ry="0" style="stroke:#181818;stroke-width:1.0;"/><path d="M31.5,485.1484 C31.5,485.1484 31.5,485.1484 31.5,485.1484 C31.5,485.1484 31.5,485.1484 31.5,485.1484 L31.5,485.1484 C31.5,485.1484 31.5,485.1484 31.5,485.1484 C31.5,485.1484 31.5,485.1484 31.5,485.1484 C31.5,485.1484 31.5,485.1484 31.5,485.1484 C31.5,485.1484 31.5,485.1484 31.5,485.1484 C31.5,485.1484 31.5,485.1484 31.5,485.1484 C31.5,485.1484 31.5,485.1484 31.5,485.1484 C31.5,485.1484 31.5,485.1484 31.5,485.1484 C31.5,485.1484 31.5,485.1484 31.5,485.1484 L31.5,485.1484 C31.5,485.1484 31.5,485.1484 31.5,485.1484 C31.5,485.1484 31.5,485.1484 31.5,485.1484 C31.5,485.1484 31.5,485.1484 31.5,485.1484 C31.5,485.1484 31.5,485.1484 31.5,485.1484 C31.5,485.1484 31.5,485.1484 31.5,485.1484 C31.5,485.1484 31.5,485.1484 31.5,485.1484 C31.5,485.1484 31.5,485.1484 31.5,485.1484 L31.5,485.1484 C31.5,485.1484 31.5,485.1484 31.5,485.1484 C31.5,485.1484 31.5,485.1484 31.5,485.1484 C31.5,485.1484 31.5,485.1484 31.5,485.1484 L31.5,485.1484 Z " fill="#000000"/><text fill="#000000" font-family="sans-serif" font-size="14" lengthAdjust="spacing" textLength="131" x="14" y="469.4951">Data Source Table</text></g><!--class Data Source Tuple Table--><g id="elem_Data Source Tuple Table"><rect fill="#F1F1F1" height="26.2969" id="Data Source Tuple Table" rx="2.5" ry="2.5" style="stroke:#181818;stroke-width:0.5;" width="185" x="109" y="575"/><ellipse cx="113" cy="588.1484" fill="#C2C2C2" rx="0" ry="0" style="stroke:#181818;stroke-width:1.0;"/><path d="M133.5,608.6484 C133.5,608.6484 133.5,608.6484 133.5,608.6484 C133.5,608.6484 133.5,608.6484 133.5,608.6484 L133.5,608.6484 C133.5,608.6484 133.5,608.6484 133.5,608.6484 C133.5,608.6484 133.5,608.6484 133.5,608.6484 C133.5,608.6484 133.5,608.6484 133.5,608.6484 C133.5,608.6484 133.5,608.6484 133.5,608.6484 C133.5,608.6484 133.5,608.6484 133.5,608.6484 C133.5,608.6484 133.5,608.6484 133.5,608.6484 C133.5,608.6484 133.5,608.6484 133.5,608.6484 C133.5,608.6484 133.5,608.6484 133.5,608.6484 L133.5,608.6484 C133.5,608.6484 133.5,608.6484 133.5,608.6484 C133.5,608.6484 133.5,608.6484 133.5,608.6484 C133.5,608.6484 133.5,608.6484 133.5,608.6484 C133.5,608.6484 133.5,608.6484 133.5,608.6484 C133.5,608.6484 133.5,608.6484 133.5,608.6484 C133.5,608.6484 133.5,608.6484 133.5,608.6484 C133.5,608.6484 133.5,608.6484 133.5,608.6484 L133.5,608.6484 C133.5,608.6484 133.5,608.6484 133.5,608.6484 C133.5,608.6484 133.5,608.6484 133.5,608.6484 C133.5,608.6484 133.5,608.6484 133.5,608.6484 L133.5,608.6484 Z " fill="#000000"/><text fill="#000000" font-family="sans-serif" font-size="14" lengthAdjust="spacing" textLength="175" x="116" y="592.9951">Data Source Tuple Table</text></g><!--link Server to Data Store--><g id="link_Server_Data Store"><path codeLine="37" d="M324.108,33.247 C333.845,47.099 347.0148,65.8342 363.2328,88.9082 " fill="none" id="Server-to-Data Store" style="stroke:#181818;stroke-width:1.0;"/><polygon fill="#181818" points="366.683,93.817,364.7802,84.1537,363.8078,89.7264,358.2352,88.754,366.683,93.817" style="stroke:#181818;stroke-width:1.0;"/><text fill="#000000" font-family="sans-serif" font-size="13" lengthAdjust="spacing" textLength="23" x="337.414" y="82.8278">0..*</text></g><!--link Server to Role--><g id="link_Server_Role"><path codeLine="38" d="M311.418,33.247 C303.876,55.872 289.5233,98.9289 279.6183,128.6449 " fill="none" id="Server-to-Role" style="stroke:#181818;stroke-width:1.0;"/><polygon fill="#181818" points="277.721,134.337,284.3617,127.0637,279.3021,129.5936,276.7722,124.5339,277.721,134.337" style="stroke:#181818;stroke-width:1.0;"/><text fill="#000000" font-family="sans-serif" font-size="13" lengthAdjust="spacing" textLength="23" x="253.9217" y="123.3861">1..*</text></g><!--link Data Store to Tuple Table--><g id="link_Data Store_Tuple Table"><path codeLine="40" d="M359.432,226.004 C347.191,244.617 335.893,265.672 329.5,287 C316.838,329.239 325.2869,373.2193 336.9779,409.0943 " fill="none" id="Data Store-to-Tuple Table" style="stroke:#181818;stroke-width:1.0;"/><polygon fill="#181818" points="338.837,414.799,339.8516,405.0025,337.2878,410.0451,332.2453,407.4813,338.837,414.799" style="stroke:#181818;stroke-width:1.0;"/><text fill="#000000" font-family="sans-serif" font-size="13" lengthAdjust="spacing" textLength="23" x="311.4547" y="403.7973">0..*</text></g><!--link Data Store to Rules--><g id="link_Data Store_Rules"><path codeLine="41" d="M480.449,226.136 C502.825,247.586 522.0347,265.9989 539.2887,282.5389 " fill="none" id="Data Store-to-Rules" style="stroke:#181818;stroke-width:1.0;"/><polygon fill="#181818" points="543.62,286.691,539.8911,277.5753,540.0106,283.2309,534.355,283.3504,543.62,286.691" style="stroke:#181818;stroke-width:1.0;"/><text fill="#000000" font-family="sans-serif" font-size="13" lengthAdjust="spacing" textLength="23" x="511.9759" y="276.1175">0..*</text></g><!--link Data Store to Data Source--><g id="link_Data Store_Data Source"><path codeLine="42" d="M336.339,214.274 C330.334,218.288 324.336,222.237 318.5,226 C296.72,240.044 290.098,241.677 268.5,256 C247.123,270.177 228.1556,284.2054 212.9906,295.7464 " fill="none" id="Data Store-to-Data Source" style="stroke:#181818;stroke-width:1.0;"/><polygon fill="#181818" points="208.216,299.38,217.8003,297.1127,212.1948,296.352,212.9555,290.7465,208.216,299.38" style="stroke:#181818;stroke-width:1.0;"/><text fill="#000000" font-family="sans-serif" font-size="13" lengthAdjust="spacing" textLength="23" x="186.8234" y="288.5542">0..*</text></g><!--link Data Store to Axioms--><g id="link_Data Store_Axioms"><path codeLine="43" d="M412.5,226.136 C412.5,247.586 412.5,264.151 412.5,280.691 " fill="none" id="Data Store-to-Axioms" style="stroke:#181818;stroke-width:1.0;"/><polygon fill="#181818" points="412.5,286.691,416.5,277.691,412.5,281.691,408.5,277.691,412.5,286.691" style="stroke:#181818;stroke-width:1.0;"/><text fill="#000000" font-family="sans-serif" font-size="13" lengthAdjust="spacing" textLength="23" x="386.8406" y="276.1175">0..*</text></g><!--link Data Store to Statistics--><g id="link_Data Store_Statistics"><path codeLine="44" d="M488.545,200.739 C551.54,233.658 631.7293,275.5622 672.1723,296.6962 " fill="none" id="Data Store-to-Statistics" style="stroke:#181818;stroke-width:1.0;"/><polygon fill="#181818" points="677.49,299.475,671.366,291.7616,673.0586,297.1593,667.6609,298.8519,677.49,299.475" style="stroke:#181818;stroke-width:1.0;"/><text fill="#000000" font-family="sans-serif" font-size="13" lengthAdjust="spacing" textLength="24" x="639.7048" y="288.4279">0..1</text></g><!--link Rules to Tuple Table--><g id="link_Rules_Tuple Table"><path codeLine="46" d="M534.658,338.269 C503.99,360.071 463.4712,388.8755 426.4382,415.2025 " fill="none" id="Rules-to-Tuple Table" style="stroke:#181818;stroke-width:1.0;"/><polygon fill="#181818" points="421.548,418.679,431.201,416.7244,425.6232,415.7819,426.5657,410.2041,421.548,418.679" style="stroke:#181818;stroke-width:1.0;"/><text fill="#000000" font-family="sans-serif" font-size="13" lengthAdjust="spacing" textLength="53" x="490.5" y="381.0669">mention</text><text fill="#000000" font-family="sans-serif" font-size="13" lengthAdjust="spacing" textLength="23" x="429.7017" y="409.8947">1..*</text></g><!--link Tuple Table to Fact--><g id="link_Tuple Table_Fact"><path codeLine="48" d="M354.891,514.2186 C353.248,536.4013 351.8832,554.83 350.8342,568.9922 " fill="none" id="Tuple Table-to-Fact" style="stroke:#181818;stroke-width:1.0;"/><polygon fill="#181818" points="350.391,574.9758,355.0449,566.2959,350.7603,569.9895,347.0667,565.7049,350.391,574.9758" style="stroke:#181818;stroke-width:1.0;"/><text fill="#000000" font-family="sans-serif" font-size="13" lengthAdjust="spacing" textLength="23" x="323.2137" y="563.929">0..*</text></g><!--reverse link Tuple Table to In-memory Tuple Table--><g id="link_Tuple Table_In-memory Tuple Table"><path codeLine="50" d="M426.0112,526.2601 C450.6582,548.4428 464.404,560.8136 480.14,574.9758 " fill="none" id="Tuple Table-backto-In-memory Tuple Table" style="stroke:#181818;stroke-width:1.0;"/><polygon fill="none" points="412.632,514.2186,421.9974,530.7198,430.025,521.8004,412.632,514.2186" style="stroke:#181818;stroke-width:1.0;"/></g><!--reverse link Tuple Table to Built-in Tuple Table--><g id="link_Tuple Table_Built-in Tuple Table"><path codeLine="52" d="M438.6315,494.6495 C509.3625,520.3797 604.331,554.9264 659.504,574.9971 " fill="none" id="Tuple Table-backto-Built-in Tuple Table" style="stroke:#181818;stroke-width:1.0;"/><polygon fill="none" points="421.716,488.496,436.5804,500.288,440.6827,489.0109,421.716,488.496" style="stroke:#181818;stroke-width:1.0;"/></g><!--link Data Source to Data Source Table--><g id="link_Data Source_Data Source Table"><path codeLine="54" d="M183.283,325.522 C161.751,353.608 111.9866,418.5174 90.411,446.6594 " fill="none" id="Data Source-to-Data Source Table" style="stroke:#181818;stroke-width:1.0;"/><polygon fill="#181818" points="86.7604,451.421,95.4107,446.7123,89.8026,447.453,89.0619,441.8448,86.7604,451.421" style="stroke:#181818;stroke-width:1.0;"/><text fill="#000000" font-family="sans-serif" font-size="13" lengthAdjust="spacing" textLength="23" x="62.8786" y="440.3526">0..*</text></g><!--reverse link Tuple Table to Data Source Tuple Table--><g id="link_Tuple Table_Data Source Tuple Table"><path codeLine="56" d="M281.3119,525.235 C252.6479,547.4177 235.338,560.8136 217.037,574.9758 " fill="none" id="Tuple Table-backto-Data Source Tuple Table" style="stroke:#181818;stroke-width:1.0;"/><polygon fill="none" points="295.547,514.2186,277.6397,520.4899,284.984,529.98,295.547,514.2186" style="stroke:#181818;stroke-width:1.0;"/></g><!--reverse link Data Source to Data Source Tuple Table--><g id="link_Data Source_Data Source Tuple Table"><path codeLine="57" d="M193.0954,331.6018 C194.5824,376.7788 199.6,529.2638 201.096,574.7246 " fill="none" id="Data Source-backto-Data Source Tuple Table" style="stroke:#181818;stroke-width:1.0;"/><polygon fill="#181818" points="192.898,325.605,189.1962,334.7317,193.0625,330.6023,197.1919,334.4685,192.898,325.605" style="stroke:#181818;stroke-width:1.0;"/><text fill="#000000" font-family="sans-serif" font-size="13" lengthAdjust="spacing" textLength="8" x="183.4797" y="345.7528">1</text></g><!--SRC=[ZPBBJiCm44Nt_efHDaYWLB1bWSH3IEnGom-upg2EY3tHU0o4nx_Z96r9IgdgbQ_dU1vNSnArhH6uKU8GJNoXq5Yn7Zm7TYjXZw2IS1Hn9Ax6wdQLbLEKkQqeHJW_WDnpq0Lzu1IgROpNgaBBfFZWEAoH5LK8w1jjmQDVeaHZJ4z3CUSQ2_WqaCzPi1xDzpPsPzN2GbbsYFwcRRE-zTLHkxI35cvGb72hyPdUDygnzwIFmWwh9ADor-_4FcuAsKv1nTvIjd4BpLEDMqQo-8iKJwd9xqzs-JlPkFCkkP2s6x7JVjzYdNo0xaUVTu7oYW9GbbTGdCzcfmLCp9a25skWTzQOYOkZ39Cs_wNwUV_FCRnp4dSWns3i_l15aL-iKbHoUIi6UqTZJCsypFiJkiNEOqq2eshtUK5p-26KUTTOMfY2gIc_hdQ6DyLDebfB2aV1uw6XhFWjx7TaxuyZAXp6EsjsdFy1]--></g></svg>