<?xml version="1.0" encoding="UTF-8" standalone="no"?><svg xmlns="http://www.w3.org/2000/svg" xmlns:xlink="http://www.w3.org/1999/xlink" contentScriptType="application/ecmascript" contentStyleType="text/css" height="486px" preserveAspectRatio="none" style="width:254px;height:486px;" version="1.1" viewBox="0 0 254 486" width="254px" zoomAndPan="magnify"><defs><filter height="300%" id="fsvv8t1xrmttm" width="300%" x="-1" y="-1"><feGaussianBlur result="blurOut" stdDeviation="2.0"/><feColorMatrix in="blurOut" result="blurOut2" type="matrix" values="0 0 0 0 0 0 0 0 0 0 0 0 0 0 0 0 0 0 .4 0"/><feOffset dx="4.0" dy="4.0" in="blurOut2" result="blurOut3"/><feBlend in="SourceGraphic" in2="blurOut3" mode="normal"/></filter></defs><g><!--MD5=[660773b8a6653549de7893304c647f3a]
class Tuple Table--><rect codeLine="8" fill="#F8F8F8" filter="url(#fsvv8t1xrmttm)" height="83.1875" id="Tuple Table" style="stroke: #383838; stroke-width: 1.5;" width="105" x="38" y="7"/><ellipse cx="54" cy="18.9844" fill="#C2C2C2" rx="0" ry="0" style="stroke: #383838; stroke-width: 1.0;"/><path d="M74.5,39.4844 C74.5,39.4844 74.5,39.4844 74.5,39.4844 C74.5,39.4844 74.5,39.4844 74.5,39.4844 L74.5,39.4844 C74.5,39.4844 74.5,39.4844 74.5,39.4844 C74.5,39.4844 74.5,39.4844 74.5,39.4844 C74.5,39.4844 74.5,39.4844 74.5,39.4844 C74.5,39.4844 74.5,39.4844 74.5,39.4844 C74.5,39.4844 74.5,39.4844 74.5,39.4844 C74.5,39.4844 74.5,39.4844 74.5,39.4844 C74.5,39.4844 74.5,39.4844 74.5,39.4844 C74.5,39.4844 74.5,39.4844 74.5,39.4844 L74.5,39.4844 C74.5,39.4844 74.5,39.4844 74.5,39.4844 C74.5,39.4844 74.5,39.4844 74.5,39.4844 C74.5,39.4844 74.5,39.4844 74.5,39.4844 C74.5,39.4844 74.5,39.4844 74.5,39.4844 C74.5,39.4844 74.5,39.4844 74.5,39.4844 C74.5,39.4844 74.5,39.4844 74.5,39.4844 C74.5,39.4844 74.5,39.4844 74.5,39.4844 L74.5,39.4844 C74.5,39.4844 74.5,39.4844 74.5,39.4844 C74.5,39.4844 74.5,39.4844 74.5,39.4844 C74.5,39.4844 74.5,39.4844 74.5,39.4844 L74.5,39.4844 Z "/><text fill="#000000" font-family="sans-serif" font-size="12" lengthAdjust="spacingAndGlyphs" textLength="70" x="58" y="23.1387">Tuple Table</text><line style="stroke: #383838; stroke-width: 1.5;" x1="39" x2="142" y1="30.9688" y2="30.9688"/><text fill="#000000" font-family="sans-serif" font-size="11" lengthAdjust="spacingAndGlyphs" textLength="42" x="44" y="45.1792">+name</text><text fill="#000000" font-family="sans-serif" font-size="11" lengthAdjust="spacingAndGlyphs" textLength="34" x="44" y="57.9839">+arity</text><text fill="#000000" font-family="sans-serif" font-size="11" lengthAdjust="spacingAndGlyphs" textLength="75" x="44" y="70.7886">+parameters</text><text fill="#000000" font-family="sans-serif" font-size="11" lengthAdjust="spacingAndGlyphs" textLength="93" x="44" y="83.5933">+column names</text><!--MD5=[8234e247acf68b8ef6c44ed1173a2140]
class Data Source--><rect codeLine="15" fill="#F8F8F8" filter="url(#fsvv8t1xrmttm)" height="70.3828" id="Data Source" style="stroke: #383838; stroke-width: 1.5;" width="87" x="113" y="402"/><ellipse cx="118.35" cy="413.9844" fill="#C2C2C2" rx="0" ry="0" style="stroke: #383838; stroke-width: 1.0;"/><path d="M138.85,434.4844 C138.85,434.4844 138.85,434.4844 138.85,434.4844 C138.85,434.4844 138.85,434.4844 138.85,434.4844 L138.85,434.4844 C138.85,434.4844 138.85,434.4844 138.85,434.4844 C138.85,434.4844 138.85,434.4844 138.85,434.4844 C138.85,434.4844 138.85,434.4844 138.85,434.4844 C138.85,434.4844 138.85,434.4844 138.85,434.4844 C138.85,434.4844 138.85,434.4844 138.85,434.4844 C138.85,434.4844 138.85,434.4844 138.85,434.4844 C138.85,434.4844 138.85,434.4844 138.85,434.4844 C138.85,434.4844 138.85,434.4844 138.85,434.4844 L138.85,434.4844 C138.85,434.4844 138.85,434.4844 138.85,434.4844 C138.85,434.4844 138.85,434.4844 138.85,434.4844 C138.85,434.4844 138.85,434.4844 138.85,434.4844 C138.85,434.4844 138.85,434.4844 138.85,434.4844 C138.85,434.4844 138.85,434.4844 138.85,434.4844 C138.85,434.4844 138.85,434.4844 138.85,434.4844 C138.85,434.4844 138.85,434.4844 138.85,434.4844 L138.85,434.4844 C138.85,434.4844 138.85,434.4844 138.85,434.4844 C138.85,434.4844 138.85,434.4844 138.85,434.4844 C138.85,434.4844 138.85,434.4844 138.85,434.4844 L138.85,434.4844 Z "/><text fill="#000000" font-family="sans-serif" font-size="12" lengthAdjust="spacingAndGlyphs" textLength="74" x="121.65" y="418.1387">Data Source</text><line style="stroke: #383838; stroke-width: 1.5;" x1="114" x2="199" y1="425.9688" y2="425.9688"/><text fill="#000000" font-family="sans-serif" font-size="11" lengthAdjust="spacingAndGlyphs" textLength="42" x="119" y="440.1792">+name</text><text fill="#000000" font-family="sans-serif" font-size="11" lengthAdjust="spacingAndGlyphs" textLength="35" x="119" y="452.9839">+type</text><text fill="#000000" font-family="sans-serif" font-size="11" lengthAdjust="spacingAndGlyphs" textLength="75" x="119" y="465.7886">+parameters</text><!--MD5=[8b7b02036613c263e1d0ae582a50c9f5]
class Fact--><rect fill="#F8F8F8" filter="url(#fsvv8t1xrmttm)" height="23.9688" id="Fact" style="stroke: #383838; stroke-width: 1.5;" width="35" x="7" y="150"/><ellipse cx="11" cy="161.9844" fill="#C2C2C2" rx="0" ry="0" style="stroke: #383838; stroke-width: 1.0;"/><path d="M31.5,182.4844 C31.5,182.4844 31.5,182.4844 31.5,182.4844 C31.5,182.4844 31.5,182.4844 31.5,182.4844 L31.5,182.4844 C31.5,182.4844 31.5,182.4844 31.5,182.4844 C31.5,182.4844 31.5,182.4844 31.5,182.4844 C31.5,182.4844 31.5,182.4844 31.5,182.4844 C31.5,182.4844 31.5,182.4844 31.5,182.4844 C31.5,182.4844 31.5,182.4844 31.5,182.4844 C31.5,182.4844 31.5,182.4844 31.5,182.4844 C31.5,182.4844 31.5,182.4844 31.5,182.4844 C31.5,182.4844 31.5,182.4844 31.5,182.4844 L31.5,182.4844 C31.5,182.4844 31.5,182.4844 31.5,182.4844 C31.5,182.4844 31.5,182.4844 31.5,182.4844 C31.5,182.4844 31.5,182.4844 31.5,182.4844 C31.5,182.4844 31.5,182.4844 31.5,182.4844 C31.5,182.4844 31.5,182.4844 31.5,182.4844 C31.5,182.4844 31.5,182.4844 31.5,182.4844 C31.5,182.4844 31.5,182.4844 31.5,182.4844 L31.5,182.4844 C31.5,182.4844 31.5,182.4844 31.5,182.4844 C31.5,182.4844 31.5,182.4844 31.5,182.4844 C31.5,182.4844 31.5,182.4844 31.5,182.4844 L31.5,182.4844 Z "/><text fill="#000000" font-family="sans-serif" font-size="12" lengthAdjust="spacingAndGlyphs" textLength="25" x="14" y="166.1387">Fact</text><!--MD5=[118d91d5c73af0b5a930d67527a76711]
class Data Source Tuple Table--><rect fill="#F8F8F8" filter="url(#fsvv8t1xrmttm)" height="23.9688" id="Data Source Tuple Table" style="stroke: #383838; stroke-width: 1.5;" width="158" x="77.5" y="150"/><ellipse cx="81.5" cy="161.9844" fill="#C2C2C2" rx="0" ry="0" style="stroke: #383838; stroke-width: 1.0;"/><path d="M102,182.4844 C102,182.4844 102,182.4844 102,182.4844 C102,182.4844 102,182.4844 102,182.4844 L102,182.4844 C102,182.4844 102,182.4844 102,182.4844 C102,182.4844 102,182.4844 102,182.4844 C102,182.4844 102,182.4844 102,182.4844 C102,182.4844 102,182.4844 102,182.4844 C102,182.4844 102,182.4844 102,182.4844 C102,182.4844 102,182.4844 102,182.4844 C102,182.4844 102,182.4844 102,182.4844 C102,182.4844 102,182.4844 102,182.4844 L102,182.4844 C102,182.4844 102,182.4844 102,182.4844 C102,182.4844 102,182.4844 102,182.4844 C102,182.4844 102,182.4844 102,182.4844 C102,182.4844 102,182.4844 102,182.4844 C102,182.4844 102,182.4844 102,182.4844 C102,182.4844 102,182.4844 102,182.4844 C102,182.4844 102,182.4844 102,182.4844 L102,182.4844 C102,182.4844 102,182.4844 102,182.4844 C102,182.4844 102,182.4844 102,182.4844 C102,182.4844 102,182.4844 102,182.4844 L102,182.4844 Z "/><text fill="#000000" font-family="sans-serif" font-size="12" lengthAdjust="spacingAndGlyphs" textLength="148" x="84.5" y="166.1387">Data Source Tuple Table</text><!--MD5=[4bd9a4b47ba91bbf54c6d1ef9c242c34]
class Source Table--><rect fill="#F8F8F8" filter="url(#fsvv8t1xrmttm)" height="23.9688" id="Source Table" style="stroke: #383838; stroke-width: 1.5;" width="90" x="111.5" y="234"/><ellipse cx="115.5" cy="245.9844" fill="#C2C2C2" rx="0" ry="0" style="stroke: #383838; stroke-width: 1.0;"/><path d="M136,266.4844 C136,266.4844 136,266.4844 136,266.4844 C136,266.4844 136,266.4844 136,266.4844 L136,266.4844 C136,266.4844 136,266.4844 136,266.4844 C136,266.4844 136,266.4844 136,266.4844 C136,266.4844 136,266.4844 136,266.4844 C136,266.4844 136,266.4844 136,266.4844 C136,266.4844 136,266.4844 136,266.4844 C136,266.4844 136,266.4844 136,266.4844 C136,266.4844 136,266.4844 136,266.4844 C136,266.4844 136,266.4844 136,266.4844 L136,266.4844 C136,266.4844 136,266.4844 136,266.4844 C136,266.4844 136,266.4844 136,266.4844 C136,266.4844 136,266.4844 136,266.4844 C136,266.4844 136,266.4844 136,266.4844 C136,266.4844 136,266.4844 136,266.4844 C136,266.4844 136,266.4844 136,266.4844 C136,266.4844 136,266.4844 136,266.4844 L136,266.4844 C136,266.4844 136,266.4844 136,266.4844 C136,266.4844 136,266.4844 136,266.4844 C136,266.4844 136,266.4844 136,266.4844 L136,266.4844 Z "/><text fill="#000000" font-family="sans-serif" font-size="12" lengthAdjust="spacingAndGlyphs" textLength="80" x="118.5" y="250.1387">Source Table</text><!--MD5=[05ce011fdeef6892fcfc8abd334ab9ad]
class Data Source Table--><rect fill="#F8F8F8" filter="url(#fsvv8t1xrmttm)" height="23.9688" id="Data Source Table" style="stroke: #383838; stroke-width: 1.5;" width="121" x="37" y="318"/><ellipse cx="41" cy="329.9844" fill="#C2C2C2" rx="0" ry="0" style="stroke: #383838; stroke-width: 1.0;"/><path d="M61.5,350.4844 C61.5,350.4844 61.5,350.4844 61.5,350.4844 C61.5,350.4844 61.5,350.4844 61.5,350.4844 L61.5,350.4844 C61.5,350.4844 61.5,350.4844 61.5,350.4844 C61.5,350.4844 61.5,350.4844 61.5,350.4844 C61.5,350.4844 61.5,350.4844 61.5,350.4844 C61.5,350.4844 61.5,350.4844 61.5,350.4844 C61.5,350.4844 61.5,350.4844 61.5,350.4844 C61.5,350.4844 61.5,350.4844 61.5,350.4844 C61.5,350.4844 61.5,350.4844 61.5,350.4844 C61.5,350.4844 61.5,350.4844 61.5,350.4844 L61.5,350.4844 C61.5,350.4844 61.5,350.4844 61.5,350.4844 C61.5,350.4844 61.5,350.4844 61.5,350.4844 C61.5,350.4844 61.5,350.4844 61.5,350.4844 C61.5,350.4844 61.5,350.4844 61.5,350.4844 C61.5,350.4844 61.5,350.4844 61.5,350.4844 C61.5,350.4844 61.5,350.4844 61.5,350.4844 C61.5,350.4844 61.5,350.4844 61.5,350.4844 L61.5,350.4844 C61.5,350.4844 61.5,350.4844 61.5,350.4844 C61.5,350.4844 61.5,350.4844 61.5,350.4844 C61.5,350.4844 61.5,350.4844 61.5,350.4844 L61.5,350.4844 Z "/><text fill="#000000" font-family="sans-serif" font-size="12" lengthAdjust="spacingAndGlyphs" textLength="111" x="44" y="334.1387">Data Source Table</text><!--MD5=[91221848cc6fc2b51471cfb300e81a0a]
class Query--><rect fill="#F8F8F8" filter="url(#fsvv8t1xrmttm)" height="23.9688" id="Query" style="stroke: #383838; stroke-width: 1.5;" width="47" x="193" y="318"/><ellipse cx="197" cy="329.9844" fill="#C2C2C2" rx="0" ry="0" style="stroke: #383838; stroke-width: 1.0;"/><path d="M217.5,350.4844 C217.5,350.4844 217.5,350.4844 217.5,350.4844 C217.5,350.4844 217.5,350.4844 217.5,350.4844 L217.5,350.4844 C217.5,350.4844 217.5,350.4844 217.5,350.4844 C217.5,350.4844 217.5,350.4844 217.5,350.4844 C217.5,350.4844 217.5,350.4844 217.5,350.4844 C217.5,350.4844 217.5,350.4844 217.5,350.4844 C217.5,350.4844 217.5,350.4844 217.5,350.4844 C217.5,350.4844 217.5,350.4844 217.5,350.4844 C217.5,350.4844 217.5,350.4844 217.5,350.4844 C217.5,350.4844 217.5,350.4844 217.5,350.4844 L217.5,350.4844 C217.5,350.4844 217.5,350.4844 217.5,350.4844 C217.5,350.4844 217.5,350.4844 217.5,350.4844 C217.5,350.4844 217.5,350.4844 217.5,350.4844 C217.5,350.4844 217.5,350.4844 217.5,350.4844 C217.5,350.4844 217.5,350.4844 217.5,350.4844 C217.5,350.4844 217.5,350.4844 217.5,350.4844 C217.5,350.4844 217.5,350.4844 217.5,350.4844 L217.5,350.4844 C217.5,350.4844 217.5,350.4844 217.5,350.4844 C217.5,350.4844 217.5,350.4844 217.5,350.4844 C217.5,350.4844 217.5,350.4844 217.5,350.4844 L217.5,350.4844 Z "/><text fill="#000000" font-family="sans-serif" font-size="12" lengthAdjust="spacingAndGlyphs" textLength="37" x="200" y="334.1387">Query</text><!--MD5=[680f0476730b4921884732bb96a6cda1]
link Tuple Table to Fact--><path codeLine="21" d="M66.4858,90.069 C55.227,109.09 42.4576,130.663 33.9877,144.971 " fill="none" id="Tuple Table-to-Fact" style="stroke: #383838; stroke-width: 1.0;"/><polygon fill="#383838" points="31.2886,149.531,39.3154,143.824,33.8357,145.2284,32.4313,139.7487,31.2886,149.531" style="stroke: #383838; stroke-width: 1.0;"/><text fill="#000000" font-family="sans-serif" font-size="13" lengthAdjust="spacingAndGlyphs" textLength="23" x="6.4923" y="139.016">0..*</text><!--MD5=[e87bb0db34096c1617c368cc1fb9758a]
link Data Source Tuple Table to Source Table--><path codeLine="23" d="M156.5,174.059 C156.5,188.12 156.5,212.511 156.5,228.704 " fill="none" id="Data Source Tuple Table-to-Source Table" style="stroke: #383838; stroke-width: 1.0;"/><polygon fill="#383838" points="156.5,233.854,160.5,224.854,156.5,228.854,152.5,224.854,156.5,233.854" style="stroke: #383838; stroke-width: 1.0;"/><text fill="#000000" font-family="sans-serif" font-size="13" lengthAdjust="spacingAndGlyphs" textLength="8" x="146.85" y="222.8508">1</text><!--MD5=[8ea87da58be02d446f3a02cada4eba8d]
reverse link Source Table to Data Source Table--><path codeLine="24" d="M136.56,274.713 C125.938,289.476 113.461,306.817 105.5194,317.854 " fill="none" id="Source Table-backto-Data Source Table" style="stroke: #383838; stroke-width: 1.0;"/><polygon fill="none" points="131.18,270.205,148.543,258.059,142.544,278.382,131.18,270.205" style="stroke: #383838; stroke-width: 1.0;"/><!--MD5=[9811233913304d0574409cf3709bbc33]
reverse link Source Table to Query--><path codeLine="26" d="M176.418,274.222 C187.298,289.09 200.179,306.695 208.345,317.854 " fill="none" id="Source Table-backto-Query" style="stroke: #383838; stroke-width: 1.0;"/><polygon fill="none" points="170.753,278.333,164.592,258.059,182.051,270.066,170.753,278.333" style="stroke: #383838; stroke-width: 1.0;"/><!--MD5=[b2f6fdf3f20d85e96ba1e861f12e8b9c]
link Query to Data Source--><path codeLine="27" d="M210.079,342.237 C202.603,355.32 189.849,377.6388 178.66,397.2195 " fill="none" id="Query-to-Data Source" style="stroke: #383838; stroke-width: 1.0;"/><polygon fill="#383838" points="176.151,401.61,184.0891,395.7802,178.6316,397.2687,177.1431,391.8112,176.151,401.61" style="stroke: #383838; stroke-width: 1.0;"/><!--MD5=[8642bf98deed1169085af743136b9987]
reverse link Data Source Table to Data Source--><path codeLine="29" d="M106.4004,346.84 C114.523,361.295 126.806,383.1539 137.176,401.61 " fill="none" id="Data Source Table-backto-Data Source" style="stroke: #383838; stroke-width: 1.0;"/><polygon fill="#383838" points="103.814,342.237,104.7344,352.0428,106.2628,346.5963,111.7093,348.1247,103.814,342.237" style="stroke: #383838; stroke-width: 1.0;"/><text fill="#000000" font-family="sans-serif" font-size="13" lengthAdjust="spacingAndGlyphs" textLength="23" x="78.772" y="362.1076">0..*</text><!--MD5=[da25c11812fb5c3c39a320a0609e9798]
reverse link Tuple Table to Data Source Tuple Table--><path codeLine="33" d="M124.746,107.355 C134.264,123.435 143.643,139.28 149.711,149.531 " fill="none" id="Tuple Table-backto-Data Source Tuple Table" style="stroke: #383838; stroke-width: 1.0;"/><polygon fill="none" points="118.678,110.846,114.514,90.069,130.726,103.715,118.678,110.846" style="stroke: #383838; stroke-width: 1.0;"/><!--MD5=[a40384b1f769e81f6c88a3df7297f7f9]
@startuml
'style options
skinparam monochrome true
skinparam circledCharacterRadius 0
skinparam circledCharacterFontSize 0
skinparam classAttributeIconSize 0
hide empty members

class "Tuple Table" {
      +name
      +arity
      +parameters
      +column names
}

class "Data Source" {
      +name
      +type
      +parameters
}

"Tuple Table" - -> "0..*" Fact

"Data Source Tuple Table" - -> "1" "Source Table"
"Data Source Table" -up-|>  "Source Table"

"Query" -up-|> "Source Table"
"Query" - -> "Data Source"

"Data Source" -up-> "0..*" "Data Source Table"



"Data Source Tuple Table" -up-|> "Tuple Table"
@enduml

@startuml
skinparam monochrome true
skinparam circledCharacterRadius 0
skinparam circledCharacterFontSize 0
skinparam classAttributeIconSize 0
hide empty members

class "Tuple Table" {
      +name
      +arity
      +parameters
      +column names
}

class "Data Source" {
      +name
      +type
      +parameters
}

"Tuple Table" - -> "0..*" Fact

"Data Source Tuple Table" - -> "1" "Source Table"
"Data Source Table" -up-|>  "Source Table"

"Query" -up-|> "Source Table"
"Query" - -> "Data Source"

"Data Source" -up-> "0..*" "Data Source Table"



"Data Source Tuple Table" -up-|> "Tuple Table"
@enduml

PlantUML version 1.2020.20beta7(Unknown compile time)
(GPL source distribution)
Java Runtime: Java(TM) SE Runtime Environment
JVM: Java HotSpot(TM) 64-Bit Server VM
Default Encoding: UTF-8
Language: en
Country: US
--></g></svg>